<svg width="100" height="100" viewBox="0 0 100 100" fill="none" xmlns="http://www.w3.org/2000/svg">
<rect width="100" height="100" fill="#E5E5E5"/>
<g clip-path="url(#clip0_5530_0)">
<rect width="1440" height="1522" transform="translate(-373 -320)" fill="#FBFBFB"/>
<g filter="url(#filter0_d_5530_0)">
<rect x="-30" y="-30" width="1037" height="210" rx="4" fill="white"/>
<rect x="-29.5" y="-29.5" width="1036" height="209" rx="3.5" stroke="#213F7D" stroke-opacity="0.06"/>
</g>
<circle opacity="0.16" cx="50" cy="50" r="50" fill="#213F7D"/>
<path d="M36.0405 65.1796C36.4796 62.2202 37.7936 59.6264 39.9796 57.4C42.7405 54.6 46.0732 53.2 49.9796 53.2C53.886 53.2 57.2204 54.6 59.9796 57.4C62.1796 59.6266 63.5062 62.2204 63.9593 65.1796M58.1405 44.0204C58.1405 46.247 57.3468 48.1532 55.7593 49.7408C54.1734 51.3408 52.253 52.1408 50.0001 52.1408C47.7594 52.1408 45.8409 51.3408 44.2409 49.7408C42.6534 48.1533 41.8596 46.247 41.8596 44.0204C41.8596 41.7673 42.6534 39.8468 44.2409 38.2596C45.8409 36.6737 47.7596 35.8799 50.0001 35.8799C52.2532 35.8799 54.1737 36.6737 55.7593 38.2596C57.3468 39.8471 58.1405 41.7674 58.1405 44.0204Z" stroke="#213F7D" stroke-width="3" stroke-linecap="round" stroke-linejoin="round"/>
</g>
<defs>
<filter id="filter0_d_5530_0" x="-47" y="-45" width="1077" height="250" filterUnits="userSpaceOnUse" color-interpolation-filters="sRGB">
<feFlood flood-opacity="0" result="BackgroundImageFix"/>
<feColorMatrix in="SourceAlpha" type="matrix" values="0 0 0 0 0 0 0 0 0 0 0 0 0 0 0 0 0 0 127 0" result="hardAlpha"/>
<feOffset dx="3" dy="5"/>
<feGaussianBlur stdDeviation="10"/>
<feColorMatrix type="matrix" values="0 0 0 0 0 0 0 0 0 0 0 0 0 0 0 0 0 0 0.04 0"/>
<feBlend mode="normal" in2="BackgroundImageFix" result="effect1_dropShadow_5530_0"/>
<feBlend mode="normal" in="SourceGraphic" in2="effect1_dropShadow_5530_0" result="shape"/>
</filter>
<clipPath id="clip0_5530_0">
<rect width="1440" height="1522" fill="white" transform="translate(-373 -320)"/>
</clipPath>
</defs>
</svg>
